<svg xmlns="http://www.w3.org/2000/svg" width="179" height="32" viewBox="0 0 179 32">
    <g fill="#231F20" fill-rule="evenodd">
        <path d="M0 1.032V32h22.763v-4.91H5.31v-8.273h15.277v-4.912H5.31V5.943h17.235v-4.91zM59.448 16.606c0 1.51-.258 2.909-.773 4.197-.515 1.29-1.235 2.4-2.162 3.333-.927.934-2.052 1.658-3.376 2.177-1.324.518-2.796.776-4.413.776h-6.09V5.943h6.09c1.617 0 3.089.267 4.413.8 1.324.533 2.45 1.266 3.376 2.2.927.933 1.647 2.05 2.162 3.353.515 1.304.773 2.71.773 4.22v.09zm1.17-11.15c-1.457-1.386-3.193-2.47-5.208-3.251-2.016-.781-4.23-1.173-6.642-1.173h-11.52V32h11.52c2.412 0 4.626-.398 6.642-1.194 2.015-.797 3.75-1.888 5.207-3.274a14.445 14.445 0 0 0 3.376-4.91c.795-1.888 1.192-3.922 1.192-6.106v-.088c0-2.182-.397-4.21-1.192-6.083a14.496 14.496 0 0 0-3.376-4.889zM86.996 1.032L73.462 32H79l3.163-7.424 1.977-4.787 5.273-12.3 5.317 12.3h-8.421l1.977 4.787h8.42L99.826 32h5.713L92.004 1.032zM134.343 25.923c-1.337.722-2.936 1.083-4.794 1.083-1.454 0-2.797-.288-4.032-.863a9.832 9.832 0 0 1-3.203-2.364c-.9-1.001-1.599-2.173-2.092-3.514a12.228 12.228 0 0 1-.74-4.265v-.088c0-1.503.246-2.917.74-4.243a10.543 10.543 0 0 1 2.092-3.47 9.991 9.991 0 0 1 3.203-2.342c1.235-.575 2.578-.863 4.032-.863 1.743 0 3.297.354 4.662 1.061 1.366.707 2.66 1.636 3.88 2.785l3.443-4.022a20.903 20.903 0 0 0-2.31-1.946 14.84 14.84 0 0 0-2.659-1.524 15.406 15.406 0 0 0-3.16-.994C132.257.118 130.986 0 129.592 0c-2.325 0-4.445.42-6.363 1.26-1.917.84-3.578 1.989-4.981 3.448a15.694 15.694 0 0 0-3.269 5.082c-.776 1.93-1.164 4-1.164 6.21v.088c0 2.21.396 4.288 1.186 6.232.79 1.945 1.88 3.633 3.269 5.062a15.327 15.327 0 0 0 4.916 3.38c1.888.824 3.95 1.238 6.188 1.238 1.423 0 2.724-.126 3.9-.376a13.77 13.77 0 0 0 3.248-1.105c.987-.486 1.91-1.06 2.767-1.723a19.83 19.83 0 0 0 2.462-2.277l-3.443-3.535c-1.307 1.237-2.63 2.217-3.965 2.939M172.778 1.032l-8.737 13.715-8.649-13.715h-6.398l12.267 18.758V32h5.473V19.658L179 1.032z"/>
    </g>
</svg>
